<?xml version="1.0" encoding="UTF-8"?>
<svg width="344px" height="112px" viewBox="0 0 344 112" version="1.1" xmlns="http://www.w3.org/2000/svg" xmlns:xlink="http://www.w3.org/1999/xlink">
    <!-- Generator: Sketch 63.1 (92452) - https://sketch.com -->
    <title>DPS_Logo_Print_Color_pos</title>
    <desc>Created with Sketch.</desc>
    <g id="Page-1" stroke="none" stroke-width="1" fill="none" fill-rule="evenodd">
        <g id="DPS_Logo_Print_Color_pos">
            <polyline id="Fill-1" fill="#EE9D3D" points="70.729 0.496 70.729 7.646 104.255 7.646 104.255 41.108 111.405 41.108 111.405 0.497 70.729 0.496"></polyline>
            <polyline id="Fill-2" fill="#31BBDD" points="41.091 0.501 0.516 0.496 0.516 41.108 7.665 41.108 7.665 7.651 41.091 7.651 41.091 0.501"></polyline>
            <polyline id="Fill-3" fill="#3E2A64" points="41.091 104.231 7.665 104.231 7.665 70.746 0.516 70.746 0.516 111.379 41.091 111.38 41.091 104.231"></polyline>
            <polyline id="Fill-4" fill="#AA3F87" points="104.255 70.746 104.255 104.226 70.729 104.226 70.729 111.375 111.405 111.38 111.405 70.746 104.255 70.746"></polyline>
            <path d="M149.663,7.079 L149.663,23.524 L152.914,23.524 C154.215,23.524 155.386,23.314 156.43,22.894 C157.473,22.475 158.366,21.893 159.111,21.148 C159.857,20.404 160.426,19.532 160.818,18.529 C161.211,17.528 161.408,16.459 161.408,15.322 C161.408,14.159 161.218,13.075 160.839,12.074 C160.459,11.073 159.903,10.199 159.172,9.455 C158.442,8.71 157.54,8.129 156.471,7.709 C155.399,7.289 154.174,7.079 152.793,7.079 L149.663,7.079 Z M142.594,0.502 L153.118,0.502 C155.421,0.502 157.521,0.881 159.417,1.639 C161.312,2.397 162.937,3.438 164.293,4.765 C165.647,6.091 166.697,7.654 167.441,9.455 C168.187,11.255 168.559,13.211 168.559,15.322 C168.559,17.434 168.174,19.397 167.402,21.209 C166.629,23.023 165.566,24.586 164.212,25.9 C162.856,27.213 161.238,28.247 159.356,29.006 C157.473,29.764 155.434,30.142 153.24,30.142 L142.594,30.142 L142.594,0.502 L142.594,0.502 Z" id="Fill-5" fill="#131614"></path>
            <polygon id="Fill-6" fill="#131614" points="172.911 30.142 180.062 30.142 180.062 0.502 172.911 0.502"></polygon>
            <path d="M200.055,30.549 C197.644,30.549 195.475,30.142 193.554,29.33 C191.629,28.518 189.999,27.416 188.657,26.022 C187.317,24.628 186.286,23.01 185.568,21.17 C184.85,19.329 184.493,17.379 184.493,15.322 C184.493,13.184 184.87,11.18 185.631,9.313 C186.388,7.445 187.439,5.834 188.779,4.481 C190.121,3.128 191.725,2.058 193.594,1.272 C195.462,0.487 197.522,0.096 199.771,0.096 C202.641,0.096 205.121,0.637 207.208,1.72 C209.291,2.802 211.04,4.251 212.449,6.063 L206.516,10.247 C205.812,9.136 204.896,8.284 203.772,7.688 C202.648,7.093 201.328,6.795 199.81,6.795 C198.673,6.795 197.601,7.012 196.603,7.445 C195.598,7.878 194.725,8.474 193.98,9.231 C193.236,9.989 192.644,10.889 192.211,11.932 C191.778,12.974 191.563,14.103 191.563,15.322 C191.563,16.594 191.765,17.744 192.172,18.774 C192.579,19.803 193.154,20.695 193.898,21.454 C194.645,22.212 195.531,22.794 196.56,23.2 C197.588,23.605 198.713,23.808 199.933,23.808 C201.639,23.808 203.074,23.402 204.242,22.591 C205.406,21.778 206.245,20.641 206.762,19.178 L198.511,19.178 L198.511,12.601 L214.44,12.601 L214.44,15.972 C214.44,17.921 214.096,19.781 213.405,21.554 C212.714,23.327 211.738,24.879 210.478,26.204 C209.219,27.53 207.701,28.586 205.928,29.371 C204.152,30.156 202.195,30.549 200.055,30.549" id="Fill-7" fill="#131614"></path>
            <polygon id="Fill-8" fill="#131614" points="218.931 30.142 226.08 30.142 226.08 0.502 218.931 0.502"></polygon>
            <polyline id="Fill-9" fill="#131614" points="237.681 7.038 229.635 7.038 229.635 0.502 252.555 0.502 252.555 7.038 244.589 7.038 244.589 30.142 237.681 30.142 237.681 7.038"></polyline>
            <path d="M262.042,19.545 L269.03,19.545 L265.537,9.597 L262.042,19.545 Z M262.121,0.502 L268.95,0.502 L279.919,30.142 L272.726,30.142 L271.185,25.716 L259.847,25.716 L258.302,30.142 L251.153,30.142 L262.121,0.502 L262.121,0.502 Z" id="Fill-10" fill="#131614"></path>
            <polyline id="Fill-11" fill="#131614" points="282.724 0.502 289.837 0.502 289.837 23.362 302.756 23.362 302.756 30.142 282.724 30.142 282.724 0.502"></polyline>
            <path d="M149.705,47.522 L149.705,56.738 L154.093,56.738 C155.421,56.738 156.524,56.318 157.405,55.479 C158.285,54.641 158.726,53.531 158.726,52.15 C158.726,50.77 158.285,49.654 157.405,48.801 C156.524,47.948 155.421,47.522 154.093,47.522 L149.705,47.522 Z M142.594,41.107 L154.458,41.107 C156.193,41.107 157.764,41.397 159.172,41.979 C160.581,42.56 161.787,43.354 162.788,44.355 C163.79,45.356 164.562,46.526 165.105,47.865 C165.647,49.206 165.918,50.635 165.918,52.15 C165.918,53.638 165.647,55.061 165.105,56.414 C164.562,57.767 163.799,58.951 162.81,59.966 C161.82,60.981 160.616,61.793 159.192,62.404 C157.77,63.011 156.18,63.317 154.419,63.317 L149.705,63.317 L149.705,70.747 L142.594,70.747 L142.594,41.107 L142.594,41.107 Z" id="Fill-12" fill="#131614"></path>
            <path d="M176.839,47.562 L176.839,55.439 L182,55.439 C183.517,55.439 184.635,55.052 185.353,54.281 C186.07,53.51 186.431,52.57 186.431,51.459 C186.431,50.241 186.064,49.288 185.333,48.597 C184.602,47.907 183.491,47.562 182,47.562 L176.839,47.562 Z M169.769,41.107 L182.529,41.107 C184.318,41.107 185.902,41.376 187.284,41.918 C188.666,42.46 189.83,43.19 190.779,44.11 C191.725,45.031 192.446,46.108 192.932,47.339 C193.418,48.571 193.663,49.889 193.663,51.297 C193.663,53.192 193.236,54.906 192.383,56.434 C191.53,57.964 190.359,59.161 188.868,60.028 L194.394,70.747 L186.593,70.747 L182.407,61.855 L176.839,61.855 L176.839,70.747 L169.769,70.747 L169.769,41.107 L169.769,41.107 Z" id="Fill-13" fill="#131614"></path>
            <path d="M211.857,64.169 C213.021,64.169 214.099,63.953 215.088,63.519 C216.077,63.087 216.93,62.49 217.648,61.733 C218.365,60.976 218.927,60.102 219.334,59.114 C219.741,58.126 219.943,57.063 219.943,55.927 C219.943,54.79 219.741,53.721 219.334,52.718 C218.927,51.717 218.359,50.838 217.628,50.08 C216.897,49.321 216.037,48.726 215.048,48.292 C214.059,47.861 212.995,47.643 211.857,47.643 C210.72,47.643 209.655,47.861 208.669,48.292 C207.678,48.726 206.831,49.321 206.13,50.08 C205.422,50.838 204.87,51.717 204.463,52.718 C204.057,53.721 203.851,54.79 203.851,55.927 C203.851,57.063 204.05,58.126 204.443,59.114 C204.833,60.102 205.389,60.976 206.107,61.733 C206.824,62.49 207.671,63.087 208.646,63.519 C209.622,63.953 210.693,64.169 211.857,64.169 Z M211.857,71.154 C209.744,71.154 207.766,70.753 205.925,69.955 C204.083,69.157 202.479,68.073 201.11,66.707 C199.741,65.341 198.666,63.73 197.879,61.874 C197.092,60.021 196.702,58.038 196.702,55.927 C196.702,53.815 197.092,51.839 197.879,49.999 C198.666,48.158 199.741,46.547 201.11,45.166 C202.479,43.786 204.083,42.696 205.925,41.898 C207.766,41.1 209.744,40.7 211.857,40.7 C213.971,40.7 215.948,41.1 217.79,41.898 C219.632,42.696 221.245,43.786 222.624,45.166 C224.007,46.547 225.091,48.158 225.875,49.999 C226.662,51.839 227.056,53.815 227.056,55.927 C227.056,58.038 226.662,60.021 225.875,61.874 C225.091,63.73 224.013,65.341 222.647,66.707 C221.279,68.073 219.671,69.157 217.829,69.955 C215.988,70.753 213.997,71.154 211.857,71.154 L211.857,71.154 Z" id="Fill-14" fill="#131614"></path>
            <path d="M238.438,47.684 L238.438,64.128 L241.688,64.128 C242.988,64.128 244.159,63.918 245.203,63.498 C246.245,63.079 247.138,62.497 247.886,61.752 C248.63,61.009 249.198,60.137 249.592,59.134 C249.985,58.132 250.181,57.063 250.181,55.927 C250.181,54.763 249.992,53.68 249.612,52.678 C249.231,51.677 248.676,50.803 247.945,50.06 C247.214,49.315 246.315,48.733 245.244,48.313 C244.172,47.894 242.949,47.684 241.566,47.684 L238.438,47.684 Z M231.368,41.107 L241.89,41.107 C244.195,41.107 246.295,41.485 248.19,42.243 C250.084,43.002 251.711,44.043 253.067,45.369 C254.42,46.696 255.472,48.259 256.216,50.06 C256.959,51.859 257.333,53.815 257.333,55.927 C257.333,58.038 256.946,60.001 256.176,61.814 C255.402,63.627 254.341,65.191 252.985,66.504 C251.629,67.818 250.012,68.852 248.13,69.611 C246.245,70.368 244.208,70.747 242.013,70.747 L231.368,70.747 L231.368,41.107 L231.368,41.107 Z" id="Fill-15" fill="#131614"></path>
            <path d="M273.325,71.154 C271.483,71.154 269.823,70.882 268.349,70.34 C266.87,69.8 265.617,69.016 264.588,67.987 C263.56,66.956 262.76,65.699 262.191,64.209 C261.622,62.721 261.338,61.016 261.338,59.094 L261.338,41.107 L268.53,41.107 L268.53,59.094 C268.53,60.744 268.957,62.017 269.81,62.91 C270.663,63.804 271.824,64.25 273.286,64.25 C274.721,64.25 275.885,63.804 276.781,62.91 C277.674,62.017 278.12,60.744 278.12,59.094 L278.12,41.107 L285.312,41.107 L285.312,59.094 C285.312,61.016 285.028,62.721 284.46,64.209 C283.891,65.699 283.091,66.956 282.061,67.987 C281.034,69.016 279.773,69.8 278.282,70.34 C276.794,70.882 275.141,71.154 273.325,71.154" id="Fill-16" fill="#131614"></path>
            <path d="M304.608,71.154 C302.333,71.154 300.263,70.753 298.391,69.955 C296.522,69.157 294.926,68.073 293.597,66.707 C292.27,65.341 291.242,63.73 290.508,61.874 C289.777,60.021 289.413,58.038 289.413,55.927 C289.413,53.76 289.79,51.752 290.551,49.896 C291.307,48.042 292.363,46.431 293.719,45.065 C295.074,43.699 296.679,42.628 298.533,41.857 C300.389,41.085 302.416,40.7 304.608,40.7 C306.047,40.7 307.412,40.877 308.712,41.227 C310.015,41.579 311.231,42.075 312.369,42.709 C313.507,43.345 314.539,44.117 315.458,45.024 C316.381,45.931 317.164,46.926 317.815,48.008 L311.599,51.947 C310.921,50.621 309.998,49.572 308.834,48.801 C307.67,48.029 306.274,47.643 304.651,47.643 C303.457,47.643 302.376,47.861 301.4,48.292 C300.425,48.726 299.585,49.315 298.881,50.06 C298.177,50.803 297.627,51.684 297.233,52.698 C296.841,53.713 296.645,54.79 296.645,55.927 C296.645,57.063 296.834,58.126 297.214,59.114 C297.595,60.102 298.134,60.968 298.841,61.713 C299.542,62.458 300.375,63.046 301.338,63.479 C302.3,63.911 303.378,64.128 304.568,64.128 C306.357,64.128 307.846,63.675 309.039,62.769 C310.229,61.862 311.14,60.705 311.761,59.297 L318.302,62.788 C317.681,64.006 316.906,65.129 315.987,66.158 C315.064,67.188 314.029,68.073 312.879,68.819 C311.727,69.563 310.455,70.137 309.059,70.543 C307.664,70.95 306.179,71.154 304.608,71.154" id="Fill-17" fill="#131614"></path>
            <polyline id="Fill-18" fill="#131614" points="328.97 47.643 320.924 47.643 320.924 41.107 343.844 41.107 343.844 47.643 335.878 47.643 335.878 70.747 328.97 70.747 328.97 47.643"></polyline>
            <path d="M153.483,111.758 C151.831,111.758 150.348,111.609 149.034,111.31 C147.721,111.013 146.529,110.6 145.459,110.072 C144.388,109.544 143.427,108.914 142.574,108.184 C141.721,107.453 140.942,106.669 140.237,105.829 L146.332,100.957 C147.198,102.282 148.228,103.312 149.42,104.042 C150.613,104.774 152.048,105.139 153.728,105.139 C154.946,105.139 155.867,104.881 156.491,104.367 C157.114,103.854 157.425,103.19 157.425,102.378 C157.425,101.891 157.304,101.485 157.059,101.158 C156.816,100.835 156.436,100.551 155.922,100.306 C155.408,100.064 154.769,99.84 154.012,99.637 C153.253,99.434 152.346,99.211 151.289,98.966 C150.206,98.724 149.108,98.419 147.998,98.053 C146.888,97.688 145.886,97.187 144.991,96.551 C144.097,95.915 143.366,95.097 142.797,94.094 C142.228,93.093 141.944,91.834 141.944,90.319 C141.944,89.019 142.213,87.814 142.756,86.703 C143.298,85.595 144.042,84.634 144.991,83.821 C145.938,83.009 147.078,82.373 148.404,81.912 C149.731,81.453 151.195,81.224 152.793,81.224 C154.148,81.224 155.379,81.337 156.491,81.569 C157.601,81.798 158.623,82.137 159.559,82.583 C160.494,83.03 161.373,83.584 162.2,84.248 C163.027,84.911 163.832,85.663 164.617,86.5 L158.93,90.927 C158.224,89.819 157.37,88.957 156.368,88.35 C155.366,87.739 154.12,87.436 152.63,87.436 C151.411,87.436 150.517,87.706 149.948,88.247 C149.379,88.789 149.095,89.399 149.095,90.074 C149.095,90.535 149.237,90.913 149.521,91.211 C149.806,91.51 150.212,91.76 150.742,91.963 C151.269,92.166 151.906,92.356 152.651,92.531 C153.395,92.708 154.215,92.903 155.11,93.119 C156.22,93.364 157.344,93.668 158.481,94.032 C159.619,94.4 160.656,94.913 161.59,95.576 C162.526,96.24 163.289,97.086 163.887,98.114 C164.482,99.143 164.781,100.456 164.781,102.053 C164.781,103.46 164.496,104.752 163.928,105.93 C163.357,107.109 162.572,108.129 161.57,108.997 C160.568,109.863 159.376,110.538 157.994,111.026 C156.613,111.513 155.11,111.758 153.483,111.758" id="Fill-19" fill="#131614"></path>
            <path d="M182.883,111.758 C180.607,111.758 178.537,111.358 176.666,110.56 C174.797,109.762 173.199,108.678 171.871,107.312 C170.543,105.946 169.515,104.334 168.782,102.479 C168.051,100.625 167.686,98.643 167.686,96.531 C167.686,94.365 168.064,92.356 168.824,90.5 C169.582,88.647 170.637,87.036 171.993,85.669 C173.347,84.303 174.953,83.233 176.808,82.461 C178.663,81.69 180.69,81.304 182.883,81.304 C184.321,81.304 185.687,81.482 186.986,81.831 C188.289,82.184 189.506,82.679 190.644,83.314 C191.781,83.949 192.813,84.721 193.732,85.628 C194.655,86.535 195.439,87.53 196.09,88.613 L189.873,92.551 C189.195,91.226 188.273,90.177 187.109,89.406 C185.945,88.634 184.549,88.247 182.926,88.247 C181.732,88.247 180.65,88.465 179.675,88.897 C178.7,89.33 177.859,89.919 177.155,90.664 C176.449,91.407 175.9,92.288 175.508,93.303 C175.115,94.317 174.918,95.395 174.918,96.531 C174.918,97.668 175.108,98.73 175.487,99.718 C175.867,100.706 176.408,101.572 177.116,102.317 C177.816,103.062 178.65,103.651 179.612,104.083 C180.575,104.516 181.652,104.733 182.843,104.733 C184.632,104.733 186.12,104.28 187.314,103.373 C188.504,102.466 189.413,101.309 190.036,99.902 L196.577,103.393 C195.954,104.611 195.181,105.734 194.262,106.763 C193.339,107.792 192.304,108.678 191.153,109.423 C190.002,110.166 188.729,110.741 187.334,111.148 C185.938,111.555 184.454,111.758 182.883,111.758" id="Fill-20" fill="#131614"></path>
            <polyline id="Fill-21" fill="#131614" points="216.828 99.942 207.115 99.942 207.115 111.351 200.002 111.351 200.002 81.711 207.115 81.711 207.115 92.957 216.828 92.957 216.828 81.711 223.937 81.711 223.937 111.351 216.828 111.351 216.828 99.942"></polyline>
            <path d="M243.405,104.774 C244.569,104.774 245.647,104.558 246.636,104.123 C247.624,103.692 248.477,103.095 249.195,102.337 C249.912,101.58 250.475,100.706 250.882,99.718 C251.288,98.73 251.49,97.668 251.49,96.531 C251.49,95.395 251.288,94.325 250.882,93.322 C250.475,92.322 249.906,91.443 249.175,90.684 C248.444,89.926 247.584,89.33 246.596,88.897 C245.607,88.465 244.542,88.247 243.405,88.247 C242.267,88.247 241.203,88.465 240.217,88.897 C239.225,89.33 238.378,89.926 237.677,90.684 C236.97,91.443 236.417,92.322 236.011,93.322 C235.604,94.325 235.399,95.395 235.399,96.531 C235.399,97.668 235.597,98.73 235.991,99.718 C236.381,100.706 236.936,101.58 237.654,102.337 C238.371,103.095 239.218,103.692 240.194,104.123 C241.169,104.558 242.241,104.774 243.405,104.774 Z M243.405,111.758 C241.292,111.758 239.314,111.358 237.472,110.56 C235.63,109.762 234.026,108.678 232.658,107.312 C231.288,105.946 230.214,104.334 229.427,102.479 C228.64,100.625 228.249,98.643 228.249,96.531 C228.249,94.419 228.64,92.444 229.427,90.603 C230.214,88.762 231.288,87.152 232.658,85.771 C234.026,84.391 235.63,83.3 237.472,82.502 C239.314,81.704 241.292,81.304 243.405,81.304 C245.518,81.304 247.495,81.704 249.337,82.502 C251.179,83.3 252.793,84.391 254.172,85.771 C255.554,87.152 256.639,88.762 257.423,90.603 C258.209,92.444 258.603,94.419 258.603,96.531 C258.603,98.643 258.209,100.625 257.423,102.479 C256.639,104.334 255.561,105.946 254.195,107.312 C252.826,108.678 251.219,109.762 249.377,110.56 C247.535,111.358 245.544,111.758 243.405,111.758 L243.405,111.758 Z" id="Fill-22" fill="#131614"></path>
            <path d="M276.847,104.774 C278.011,104.774 279.089,104.558 280.078,104.123 C281.066,103.692 281.92,103.095 282.638,102.337 C283.355,101.58 283.917,100.706 284.324,99.718 C284.73,98.73 284.932,97.668 284.932,96.531 C284.932,95.395 284.73,94.325 284.324,93.322 C283.917,92.322 283.349,91.443 282.617,90.684 C281.887,89.926 281.027,89.33 280.038,88.897 C279.049,88.465 277.985,88.247 276.847,88.247 C275.709,88.247 274.644,88.465 273.659,88.897 C272.667,89.33 271.821,89.926 271.12,90.684 C270.412,91.443 269.86,92.322 269.453,93.322 C269.046,94.325 268.841,95.395 268.841,96.531 C268.841,97.668 269.039,98.73 269.433,99.718 C269.823,100.706 270.379,101.58 271.097,102.337 C271.814,103.095 272.661,103.692 273.636,104.123 C274.612,104.558 275.683,104.774 276.847,104.774 Z M276.847,111.758 C274.734,111.758 272.756,111.358 270.914,110.56 C269.073,109.762 267.469,108.678 266.099,107.312 C264.731,105.946 263.656,104.334 262.869,102.479 C262.082,100.625 261.692,98.643 261.692,96.531 C261.692,94.419 262.082,92.444 262.869,90.603 C263.656,88.762 264.731,87.152 266.099,85.771 C267.469,84.391 269.073,83.3 270.914,82.502 C272.756,81.704 274.734,81.304 276.847,81.304 C278.96,81.304 280.937,81.704 282.779,82.502 C284.621,83.3 286.235,84.391 287.614,85.771 C288.996,87.152 290.081,88.762 290.865,90.603 C291.652,92.444 292.046,94.419 292.046,96.531 C292.046,98.643 291.652,100.625 290.865,102.479 C290.081,104.334 289.003,105.946 287.638,107.312 C286.268,108.678 284.661,109.762 282.819,110.56 C280.977,111.358 278.987,111.758 276.847,111.758 L276.847,111.758 Z" id="Fill-23" fill="#131614"></path>
            <polyline id="Fill-24" fill="#131614" points="296.354 81.711 303.468 81.711 303.468 104.571 316.387 104.571 316.387 111.351 296.354 111.351 296.354 81.711"></polyline>
        </g>
    </g>
</svg>