<?xml version="1.0" encoding="UTF-8" standalone="no"?>
<!-- Created with Inkscape (http://www.inkscape.org/) -->
<svg
   xmlns:svg="http://www.w3.org/2000/svg"
   xmlns="http://www.w3.org/2000/svg"
   version="1.0"
   width="709.2168"
   height="217.99989"
   id="svg63728">
  <defs
     id="defs63730">
    <clipPath
       id="clp10">
<path
   d="M 0.5,842.5 L 595.5,842.5 L 595.5,0.5 L 0.5,0.5 L 0.5,842.5 z "
   id="path66372" />

</clipPath>
    <clipPath
       id="clp9">
<path
   d="M -1,843 L 596,843 L 596,-1 L -1,-1 L -1,843 z "
   id="path66366" />

</clipPath>
    <clipPath
       id="clp11">
<path
   d="M 473.94,501.28 L 533.19,501.28 L 533.19,451.22 L 473.94,451.22 L 473.94,501.28 z "
   id="path66380" />

</clipPath>
    <clipPath
       id="clp3">
<path
   d="M 0.5,842.5 L 595.5,842.5 L 595.5,0.5 L 0.5,0.5 L 0.5,842.5 z "
   id="path66260" />

</clipPath>
    <clipPath
       id="clp2">
<path
   d="M -1,843 L 596,843 L 596,-1 L -1,-1 L -1,843 z "
   id="path66254" />

</clipPath>
    <clipPath
       id="clp4">
<path
   d="M 210.04,244.79 L 273,244.79 L 273,181.83 L 210.04,181.83 L 210.04,244.79 z "
   id="path66268" />

</clipPath>
    <clipPath
       id="clp5">
<path
   d="M 210.04,244.79 L 273,244.79 L 273,193.25 L 210.04,193.25 L 210.04,244.79 z "
   id="path66276" />

</clipPath>
    <clipPath
       id="clp6">
<path
   d="M 232.71,228.15 C 232.71,231.12 235.12,233.53 238.1,233.53 C 241.07,233.53 243.48,231.12 243.48,228.15 C 243.48,225.17 241.07,222.76 238.1,222.76 C 235.12,222.76 232.71,225.17 232.71,228.15"
   id="path66288" />

</clipPath>
    <clipPath
       id="clp7">
<path
   d="M 210.04,244.79 L 273,244.79 L 273,193.25 L 210.04,193.25 L 210.04,244.79 z "
   id="path66306" />

</clipPath>
    <clipPath
       id="clp8">
<path
   d="M 210.04,244.79 L 273,244.79 L 273,193.25 L 210.04,193.25 L 210.04,244.79 z "
   id="path66356" />

</clipPath>
    <clipPath
       id="clp13">
<path
   d="M 0.5,842.5 L 595.5,842.5 L 595.5,0.5 L 0.5,0.5 L 0.5,842.5 z "
   id="path66514" />

</clipPath>
    <clipPath
       id="clp12">
<path
   d="M -1,843 L 596,843 L 596,-1 L -1,-1 L -1,843 z "
   id="path66508" />

</clipPath>
  </defs>
  <g
     transform="translate(-7405.307,2699.588)"
     id="layer1">
    <g
       id="g86304">
      <path
         d="M 7892.6583,-2481.5884 L 7405.3071,-2481.5884 L 7405.3071,-2699.5883 L 8074.598,-2699.5883 L 8114.5239,-2699.5883 L 8114.5239,-2481.5884"
         style="fill:white;fill-rule:nonzero;stroke:none"
         id="path2625" />
      <path
         d="M 7892.6583,-2481.5884 L 7405.3071,-2481.5884 L 7405.3071,-2699.5883 L 8074.598,-2699.5883 L 8114.5239,-2699.5883 L 8114.5239,-2481.5884 L 7892.6583,-2481.5884 z "
         style="fill:none;stroke:white;stroke-width:0.00039541;stroke-linecap:butt;stroke-linejoin:miter;stroke-miterlimit:3.86369991;stroke-dasharray:none"
         id="path2627" />
      <path
         d="M 7420.7943,-2684.0264 L 8056.3401,-2684.0264 C 8056.3401,-2684.0264 8021.4582,-2603.3109 7940.683,-2596.7956 C 7949.2791,-2582.048 7934.4313,-2497.1504 7886.8328,-2497.1504 L 7420.7943,-2497.1504"
         style="fill:#ec1a2d;fill-rule:nonzero;stroke:none;stroke-width:0.000001;stroke-linecap:butt;stroke-linejoin:miter;stroke-miterlimit:3.86369991;stroke-dasharray:none"
         id="path2629" />
      <path
         d="M 8060.8158,-2684.0264 L 8098.9656,-2684.0264 L 8098.9656,-2497.1504 L 7906.7957,-2497.1504 C 7996.8065,-2545.7954 8060.8158,-2684.0264 8060.8158,-2684.0264"
         style="fill:#00acef;fill-rule:nonzero;stroke:none;stroke-width:0.000001;stroke-linecap:butt;stroke-linejoin:miter;stroke-miterlimit:3.86369991;stroke-dasharray:none"
         id="path2631" />
      <path
         d="M 7510.8051,-2662.5653 L 7539.2221,-2662.5653 L 7534.1781,-2638.6611 L 7584.6893,-2638.6611 L 7571.0491,-2615.3511 L 7528.2816,-2615.3511 L 7517.6252,-2571.8128 C 7517.6252,-2571.8128 7511.7997,-2555.8986 7523.2375,-2551.8045 C 7545.1897,-2544.6288 7564.229,-2560.565 7564.229,-2560.565 L 7569.131,-2537.8273 C 7569.131,-2537.8273 7549.097,-2522.0892 7522.314,-2524.7966 C 7501.1433,-2525.3909 7485.0167,-2538.7958 7486.9348,-2558.606 C 7489.0661,-2574.5422 7499.9356,-2615.7253 7499.9356,-2615.7253 L 7456.8128,-2615.7253 L 7469.8136,-2638.8592 L 7504.9796,-2638.8592"
         style="fill:white;fill-rule:nonzero;stroke:none;stroke-width:0.000001;stroke-linecap:butt;stroke-linejoin:miter;stroke-miterlimit:3.86369991;stroke-dasharray:none"
         id="path2633" />
      <path
         d="M 7598.6136,-2574.5422 C 7598.6136,-2574.5422 7592.4329,-2551.8045 7618.6476,-2549.4713 C 7641.8074,-2547.9305 7645.2885,-2564.0428 7645.4306,-2564.0428 C 7674.629,-2564.0428 7674.629,-2564.0428 7674.629,-2564.0428 C 7674.629,-2564.0428 7667.0275,-2522.2653 7613.6035,-2524.9947 C 7587.1757,-2524.9947 7563.8738,-2545.5973 7570.4808,-2583.8749 C 7570.4808,-2583.8749 7574.5302,-2643.3275 7637.4738,-2641.3905 C 7667.2406,-2639.2554 7679.673,-2624.0896 7681.8043,-2605.6221 C 7683.3672,-2591.4468 7678.1101,-2574.5422 7678.1101,-2574.5422"
         style="fill:white;fill-rule:nonzero;stroke:none;stroke-width:0.000001;stroke-linecap:butt;stroke-linejoin:miter;stroke-miterlimit:3.86369991;stroke-dasharray:none"
         id="path2635" />
      <path
         d="M 7681.236,-2564.0428 L 7709.5819,-2564.0428 C 7709.5819,-2564.0428 7704.5379,-2545.8614 7728.6213,-2546.962 C 7750.1471,-2547.9305 7744.1796,-2561.5335 7743.9664,-2561.3354 C 7742.0483,-2571.0424 7707.4506,-2573.3756 7695.2313,-2596.5094 C 7685.4985,-2628.756 7722.0143,-2639.2554 7723.5773,-2639.0573 C 7757.5355,-2646.6292 7776.5749,-2633.7966 7776.5749,-2633.7966 C 7792.1332,-2625.6524 7789.2205,-2607.383 7789.2205,-2607.383 L 7761.0877,-2607.383 C 7761.0877,-2607.383 7763.2189,-2620.0175 7743.3981,-2620.2156 C 7723.0089,-2620.0175 7726.7031,-2607.7792 7726.7031,-2607.7792 C 7729.1896,-2598.4464 7760.3062,-2592.2172 7768.6182,-2581.5417 C 7790.9255,-2552.2887 7763.7162,-2525.6551 7735.7966,-2524.4224 C 7692.8869,-2522.8596 7690.6136,-2533.4471 7687.3456,-2534.1294 C 7673.9896,-2545.7294 7681.236,-2564.0428 7681.236,-2564.0428"
         style="fill:white;fill-rule:nonzero;stroke:none;stroke-width:0.000001;stroke-linecap:butt;stroke-linejoin:miter;stroke-miterlimit:3.86369991;stroke-dasharray:none"
         id="path2637" />
      <path
         d="M 7857.9896,-2597.2798 C 7857.9896,-2597.2798 7816.2166,-2601.3519 7799.1664,-2587.947 C 7777.3564,-2570.6462 7781.6189,-2547.9305 7781.6189,-2547.9305 C 7787.3023,-2524.0262 7813.3039,-2524.4224 7813.3039,-2524.4224 C 7834.6876,-2524.9947 7846.5517,-2534.5256 7846.5517,-2534.5256 L 7847.6884,-2526.9317 L 7874.3293,-2526.9317 C 7874.3293,-2526.9317 7872.5533,-2538.2895 7874.3293,-2542.8679 C 7873.761,-2543.6383 7888.1116,-2605.0498 7888.1116,-2605.0498 C 7888.1116,-2605.0498 7895.5,-2625.0581 7873.3347,-2634.9632 C 7856.6398,-2643.8998 7837.9556,-2640.2239 7837.9556,-2640.2239 C 7837.9556,-2640.2239 7805.3471,-2639.0573 7798.7402,-2607.1849 L 7829.4305,-2607.1849 C 7829.4305,-2607.1849 7831.7749,-2620.3917 7848.683,-2619.4232 C 7870.0668,-2620.0175 7857.9896,-2597.2798 7857.9896,-2597.2798"
         style="fill:white;fill-rule:nonzero;stroke:none;stroke-width:0.000001;stroke-linecap:butt;stroke-linejoin:miter;stroke-miterlimit:3.86369991;stroke-dasharray:none"
         id="path2639" />
      <path
         d="M 7909.1401,-2633.9066 C 7907.151,-2631.8816 7906.1564,-2629.4824 7906.1564,-2626.6869 C 7906.1564,-2623.8034 7907.151,-2621.3602 7909.1401,-2619.3572 C 7911.2004,-2617.3321 7913.6158,-2616.3416 7916.4575,-2616.3416 C 7919.2282,-2616.3416 7921.6436,-2617.3541 7923.6328,-2619.3792 C 7925.693,-2621.4042 7926.6876,-2623.8475 7926.6876,-2626.6869 C 7926.6876,-2629.4603 7925.693,-2631.8596 7923.7038,-2633.9066 C 7921.6436,-2635.9757 7919.2282,-2637.0102 7916.4575,-2637.0102 C 7913.5448,-2637.0102 7911.1293,-2635.9757 7909.1401,-2633.9066 z M 7925.1247,-2617.7723 C 7922.7092,-2615.4171 7919.7965,-2614.2505 7916.4575,-2614.2505 C 7912.9054,-2614.2505 7909.9926,-2615.4612 7907.5772,-2617.8604 C 7905.1618,-2620.2596 7903.954,-2623.1871 7903.954,-2626.6869 C 7903.954,-2630.3188 7905.3038,-2633.3563 7907.8614,-2635.7556 C 7910.2768,-2638.0007 7913.1185,-2639.1453 7916.4575,-2639.1453 C 7919.8675,-2639.1453 7922.7803,-2637.9127 7925.1957,-2635.4914 C 7927.6112,-2633.0482 7928.8899,-2630.1207 7928.8899,-2626.6869 C 7928.8899,-2623.1651 7927.6112,-2620.1936 7925.1247,-2617.7723 z M 7917.5231,-2630.8471 C 7917.0259,-2631.0452 7916.3865,-2631.1332 7915.4629,-2631.1332 L 7914.6104,-2631.1332 L 7914.6104,-2627.1271 L 7915.9602,-2627.1271 C 7916.8127,-2627.1271 7917.4521,-2627.3032 7917.9494,-2627.6334 C 7918.4467,-2627.9856 7918.6598,-2628.5139 7918.6598,-2629.2843 C 7918.6598,-2630.0326 7918.3046,-2630.5609 7917.5231,-2630.8471 z M 7910.9872,-2619.7754 L 7910.9872,-2633.5544 C 7911.8398,-2633.5544 7913.1185,-2633.5544 7914.8235,-2633.5544 C 7916.5286,-2633.5544 7917.4521,-2633.5324 7917.6652,-2633.5324 C 7918.7309,-2633.4444 7919.6544,-2633.2243 7920.3648,-2632.8281 C 7921.5726,-2632.1457 7922.212,-2631.0452 7922.212,-2629.5264 C 7922.212,-2628.3818 7921.8567,-2627.5233 7921.2174,-2627.0171 C 7920.578,-2626.4888 7919.7965,-2626.1807 7918.873,-2626.0926 C 7919.7255,-2625.9165 7920.3648,-2625.6524 7920.7911,-2625.3002 C 7921.6436,-2624.6399 7921.9988,-2623.6053 7921.9988,-2622.1966 L 7921.9988,-2620.964 C 7921.9988,-2620.8319 7921.9988,-2620.6998 7922.0699,-2620.5678 C 7922.0699,-2620.4357 7922.0699,-2620.3036 7922.1409,-2620.1716 L 7922.283,-2619.7754 L 7918.8019,-2619.7754 C 7918.7309,-2620.2156 7918.6598,-2620.8539 7918.5888,-2621.6904 C 7918.5888,-2622.5048 7918.5177,-2623.0771 7918.3757,-2623.3632 C 7918.2336,-2623.8475 7917.8784,-2624.1996 7917.3811,-2624.3757 C 7917.0969,-2624.4858 7916.6706,-2624.5738 7916.1023,-2624.5958 L 7915.3208,-2624.6619 L 7914.6104,-2624.6619 L 7914.6104,-2619.7754"
         style="fill:white;fill-rule:evenodd;stroke:none;stroke-width:0.000001;stroke-linecap:butt;stroke-linejoin:miter;stroke-miterlimit:3.86369991;stroke-dasharray:none"
         id="path2641" />
      <path
         d="M 7602.9472,-2598.0502 L 7652.4638,-2598.0502 C 7652.4638,-2598.0502 7659.0707,-2619.6653 7632.2877,-2619.2251 C 7608.5595,-2619.4232 7602.9472,-2598.0502 7602.9472,-2598.0502"
         style="fill:#ec1a2d;fill-rule:nonzero;stroke:none;stroke-width:0.000001;stroke-linecap:butt;stroke-linejoin:miter;stroke-miterlimit:3.86369991;stroke-dasharray:none"
         id="path2643" />
      <path
         d="M 7853.3718,-2577.0735 C 7853.5139,-2576.8754 7809.8228,-2582.5102 7811.1726,-2554.9081 C 7818.3479,-2537.6292 7853.1587,-2551.0341 7853.3718,-2577.0735"
         style="fill:#ec1a2d;fill-rule:evenodd;stroke:none;stroke-width:0.000001;stroke-linecap:butt;stroke-linejoin:miter;stroke-miterlimit:3.86369991;stroke-dasharray:none"
         id="path2645" />
    </g>
  </g>
</svg>
