<svg width="1027" height="483" viewBox="0 0 1027 483" fill="none" xmlns="http://www.w3.org/2000/svg">
<line x1="492.968" y1="116.586" x2="492.968" y2="366.414" stroke="black" stroke-width="4"/>
<path d="M573.9 203.771H552.806L542.552 263H528.245L538.499 203.771H517.65L519.749 191.906H575.999L573.9 203.771ZM637.035 191.906L629.027 238.781C627.92 246.626 624.665 252.827 619.261 257.385C613.857 261.942 607.152 264.156 599.144 264.025C594.131 263.928 589.769 262.837 586.058 260.754C582.38 258.638 579.661 255.676 577.904 251.867C576.146 248.026 575.544 243.68 576.097 238.83L584.056 191.906H598.363L590.404 238.879C590.176 240.702 590.16 242.411 590.355 244.006C591.006 249.279 594.147 252.014 599.779 252.209C603.815 252.339 607.119 251.232 609.691 248.889C612.262 246.545 613.923 243.192 614.671 238.83L622.679 191.906H637.035ZM667.259 191.906L675.999 243.322L702.513 191.906H721.556L709.203 263H694.847L698.363 242.736L705.296 211.096L678.05 263H668.236L658.714 209.289L654.124 244.299L650.853 263H636.546L648.9 191.906H667.259ZM730.736 248.449C732.917 248.384 734.772 249.068 736.302 250.5C737.865 251.9 738.646 253.674 738.646 255.822C738.711 257.971 737.995 259.81 736.497 261.34C735 262.837 733.161 263.586 730.98 263.586C728.799 263.651 726.96 263 725.462 261.633C723.965 260.266 723.184 258.492 723.119 256.311C723.053 254.13 723.753 252.29 725.218 250.793C726.683 249.296 728.522 248.514 730.736 248.449ZM780.394 263C779.971 261.665 779.792 260.07 779.857 258.215C775.885 262.186 771.393 264.107 766.38 263.977C761.758 263.911 757.917 262.414 754.857 259.484C751.829 256.522 750.413 252.876 750.609 248.547C750.837 242.785 753.245 238.374 757.835 235.314C762.458 232.222 768.643 230.676 776.39 230.676L782.835 230.773L783.519 227.6C783.714 226.525 783.763 225.5 783.665 224.523C783.503 222.993 782.917 221.805 781.908 220.959C780.931 220.08 779.629 219.624 778.001 219.592C775.853 219.527 774.03 220.064 772.533 221.203C771.035 222.31 770.075 223.921 769.652 226.037L755.833 226.086C756.061 221.04 758.372 216.955 762.767 213.83C767.194 210.673 772.647 209.126 779.124 209.191C785.114 209.322 789.801 211.112 793.187 214.562C796.572 217.98 797.988 222.391 797.435 227.795L793.382 253.088L793.138 256.213C793.073 258.524 793.35 260.477 793.968 262.072L793.919 263H780.394ZM769.798 253.283C773.77 253.413 777.236 251.688 780.199 248.107L781.908 238.977L777.122 238.928C772.044 239.058 768.382 240.604 766.136 243.566C765.322 244.641 764.818 245.959 764.622 247.521C764.362 249.279 764.72 250.679 765.697 251.721C766.706 252.73 768.073 253.251 769.798 253.283ZM816.917 263H803.05L812.23 210.168H826.097L816.917 263ZM813.841 196.74C813.776 194.559 814.492 192.753 815.99 191.32C817.487 189.888 819.294 189.172 821.41 189.172C823.493 189.107 825.3 189.742 826.829 191.076C828.359 192.411 829.157 194.136 829.222 196.252C829.287 198.27 828.604 200.028 827.171 201.525C825.772 203.023 823.932 203.804 821.654 203.869C819.603 203.934 817.796 203.316 816.234 202.014C814.704 200.712 813.906 198.954 813.841 196.74ZM534.701 321.604C535.111 319.279 533.968 317.502 531.273 316.271L525.619 314.016C519.056 311.086 515.941 307.053 516.273 301.916C516.41 299.533 517.191 297.424 518.617 295.588C520.042 293.752 522.044 292.316 524.622 291.281C527.201 290.227 529.984 289.719 532.972 289.758C537.093 289.836 540.423 291.066 542.962 293.449C545.501 295.812 546.751 298.986 546.712 302.971H538.158C538.255 301.037 537.826 299.533 536.869 298.459C535.931 297.385 534.466 296.828 532.474 296.789C530.521 296.75 528.822 297.199 527.376 298.137C525.931 299.055 525.072 300.324 524.798 301.945C524.427 304.074 525.853 305.764 529.076 307.014L532.943 308.479L535.169 309.504C540.931 312.355 543.626 316.359 543.255 321.516C543.079 324.035 542.269 326.213 540.824 328.049C539.398 329.865 537.445 331.262 534.964 332.238C532.503 333.215 529.788 333.674 526.82 333.615C523.792 333.557 521.097 332.922 518.734 331.711C516.37 330.5 514.574 328.791 513.343 326.584C512.191 324.533 511.654 322.189 511.732 319.553L520.316 319.582C520.042 324.211 522.318 326.564 527.142 326.643C529.232 326.643 530.951 326.184 532.298 325.266C533.646 324.348 534.447 323.127 534.701 321.604ZM563.558 293.508L562.181 301.301H567.454L566.37 307.512H561.097L558.402 323.391C558.285 324.387 558.363 325.148 558.636 325.676C558.91 326.203 559.574 326.486 560.628 326.525C560.941 326.545 561.781 326.496 563.148 326.379L562.562 332.854C561.097 333.342 559.515 333.566 557.816 333.527C555.101 333.488 553.079 332.639 551.751 330.979C550.423 329.318 549.876 327.072 550.111 324.24L552.835 307.512H548.353L549.437 301.301H553.919L555.267 293.508H563.558ZM586.41 329.719C584.066 332.355 581.156 333.645 577.679 333.586C574.632 333.547 572.328 332.453 570.765 330.305C569.203 328.156 568.597 325.324 568.949 321.809L572.376 301.301H580.638L577.152 321.896C577.074 322.541 577.064 323.146 577.122 323.713C577.318 325.666 578.402 326.672 580.374 326.73C582.933 326.809 585.052 325.822 586.732 323.771L590.687 301.301H599.007L593.499 333H585.794L586.41 329.719ZM615.384 300.686C618.333 300.764 620.716 301.945 622.533 304.23L625.638 288H633.929L626.136 333H618.753L619.222 329.602C616.859 332.355 614.105 333.693 610.96 333.615C608.988 333.596 607.259 333.078 605.775 332.062C604.29 331.047 603.138 329.592 602.318 327.697C601.517 325.783 601.078 323.654 600.999 321.311C600.941 320.08 600.97 318.889 601.087 317.736L601.263 316.418C601.732 313.176 602.63 310.324 603.958 307.863C605.306 305.402 606.947 303.576 608.88 302.385C610.833 301.193 613.001 300.627 615.384 300.686ZM609.378 317.736C609.222 319.221 609.173 320.471 609.232 321.486C609.427 324.924 610.814 326.672 613.392 326.73C615.716 326.828 617.738 325.734 619.456 323.449L621.712 310.852C620.951 308.762 619.427 307.668 617.142 307.57C615.13 307.512 613.451 308.293 612.103 309.914C610.775 311.516 609.867 314.123 609.378 317.736ZM647.816 333.586C645.042 333.566 642.581 332.893 640.433 331.564C638.304 330.217 636.712 328.381 635.658 326.057C634.603 323.713 634.193 321.135 634.427 318.322L634.515 317.15C634.808 314.064 635.706 311.232 637.21 308.654C638.714 306.076 640.648 304.094 643.011 302.707C645.374 301.301 647.992 300.637 650.863 300.715C654.945 300.793 658.031 302.297 660.12 305.227C662.23 308.137 663.031 311.828 662.523 316.301L662.054 319.904H642.63C642.552 321.955 643.05 323.596 644.124 324.826C645.199 326.057 646.663 326.691 648.519 326.73C651.527 326.809 654.163 325.646 656.429 323.244L660.208 327.932C659.017 329.729 657.298 331.135 655.052 332.15C652.806 333.146 650.394 333.625 647.816 333.586ZM650.453 307.541C648.929 307.502 647.572 307.98 646.38 308.977C645.208 309.973 644.154 311.701 643.216 314.162H654.583L654.759 313.4C654.876 312.619 654.886 311.877 654.788 311.174C654.593 310.041 654.115 309.162 653.353 308.537C652.591 307.893 651.624 307.561 650.453 307.541ZM677.581 301.271L676.878 305.021C679.417 302.072 682.494 300.637 686.107 300.715C689.095 300.773 691.302 301.867 692.728 303.996C694.154 306.125 694.671 309.074 694.281 312.844L690.941 333H682.679L686.078 312.756C686.175 311.994 686.195 311.301 686.136 310.676C685.882 308.684 684.632 307.658 682.386 307.6C680.218 307.521 678.275 308.527 676.556 310.617L672.601 333H664.339L669.847 301.301L677.581 301.271ZM714.203 293.508L712.826 301.301H718.099L717.015 307.512H711.742L709.046 323.391C708.929 324.387 709.007 325.148 709.281 325.676C709.554 326.203 710.218 326.486 711.273 326.525C711.585 326.545 712.425 326.496 713.792 326.379L713.206 332.854C711.742 333.342 710.16 333.566 708.46 333.527C705.745 333.488 703.724 332.639 702.396 330.979C701.068 329.318 700.521 327.072 700.755 324.24L703.48 307.512H698.997L700.081 301.301H704.564L705.911 293.508H714.203ZM741.917 333H733.333L740.716 290.344H749.3L741.917 333ZM762.601 301.271L761.898 305.021C764.437 302.072 767.513 300.637 771.126 300.715C774.115 300.773 776.322 301.867 777.747 303.996C779.173 306.125 779.691 309.074 779.3 312.844L775.96 333H767.699L771.097 312.756C771.195 311.994 771.214 311.301 771.156 310.676C770.902 308.684 769.652 307.658 767.406 307.6C765.238 307.521 763.294 308.527 761.576 310.617L757.62 333H749.359L754.867 301.301L762.601 301.271ZM791.195 333H782.874L788.382 301.301H796.703L791.195 333ZM789.349 293.244C789.31 291.936 789.74 290.852 790.638 289.992C791.536 289.133 792.62 288.703 793.89 288.703C795.14 288.664 796.224 289.045 797.142 289.846C798.06 290.646 798.538 291.682 798.578 292.951C798.617 294.162 798.206 295.217 797.347 296.115C796.507 297.014 795.404 297.482 794.036 297.521C792.806 297.561 791.722 297.189 790.785 296.408C789.867 295.627 789.388 294.572 789.349 293.244ZM814.984 293.508L813.607 301.301H818.88L817.796 307.512H812.523L809.828 323.391C809.71 324.387 809.788 325.148 810.062 325.676C810.335 326.203 810.999 326.486 812.054 326.525C812.367 326.545 813.206 326.496 814.574 326.379L813.988 332.854C812.523 333.342 810.941 333.566 809.242 333.527C806.527 333.488 804.505 332.639 803.177 330.979C801.849 329.318 801.302 327.072 801.536 324.24L804.261 307.512H799.779L800.863 301.301H805.345L806.693 293.508H814.984ZM826.937 333H818.617L824.124 301.301H832.445L826.937 333ZM825.091 293.244C825.052 291.936 825.482 290.852 826.38 289.992C827.279 289.133 828.363 288.703 829.632 288.703C830.882 288.664 831.966 289.045 832.884 289.846C833.802 290.646 834.281 291.682 834.32 292.951C834.359 294.162 833.949 295.217 833.089 296.115C832.249 297.014 831.146 297.482 829.779 297.521C828.548 297.561 827.464 297.189 826.527 296.408C825.609 295.627 825.13 294.572 825.091 293.244ZM852.308 333C852.054 332.199 851.947 331.242 851.986 330.129C849.603 332.512 846.908 333.664 843.9 333.586C841.126 333.547 838.822 332.648 836.986 330.891C835.169 329.113 834.32 326.926 834.437 324.328C834.574 320.871 836.019 318.225 838.773 316.389C841.546 314.533 845.257 313.605 849.906 313.605L853.773 313.664L854.183 311.76C854.3 311.115 854.329 310.5 854.271 309.914C854.173 308.996 853.822 308.283 853.216 307.775C852.63 307.248 851.849 306.975 850.872 306.955C849.583 306.916 848.49 307.238 847.591 307.922C846.693 308.586 846.117 309.553 845.863 310.822L837.572 310.852C837.708 307.824 839.095 305.373 841.732 303.498C844.388 301.604 847.66 300.676 851.546 300.715C855.14 300.793 857.953 301.867 859.984 303.938C862.015 305.988 862.865 308.635 862.533 311.877L860.101 327.053L859.954 328.928C859.915 330.314 860.081 331.486 860.453 332.443L860.423 333H852.308ZM845.951 327.17C848.333 327.248 850.413 326.213 852.191 324.064L853.216 318.586L850.345 318.557C847.298 318.635 845.101 319.562 843.753 321.34C843.265 321.984 842.962 322.775 842.845 323.713C842.689 324.768 842.904 325.607 843.49 326.232C844.095 326.838 844.915 327.15 845.951 327.17ZM882.249 293.508L880.872 301.301H886.146L885.062 307.512H879.788L877.093 323.391C876.976 324.387 877.054 325.148 877.328 325.676C877.601 326.203 878.265 326.486 879.32 326.525C879.632 326.545 880.472 326.496 881.839 326.379L881.253 332.854C879.788 333.342 878.206 333.566 876.507 333.527C873.792 333.488 871.771 332.639 870.443 330.979C869.115 329.318 868.568 327.072 868.802 324.24L871.527 307.512H867.044L868.128 301.301H872.611L873.958 293.508H882.249ZM894.203 333H885.882L891.39 301.301H899.71L894.203 333ZM892.357 293.244C892.318 291.936 892.747 290.852 893.646 289.992C894.544 289.133 895.628 288.703 896.898 288.703C898.148 288.664 899.232 289.045 900.15 289.846C901.068 290.646 901.546 291.682 901.585 292.951C901.624 294.162 901.214 295.217 900.355 296.115C899.515 297.014 898.411 297.482 897.044 297.521C895.814 297.561 894.73 297.189 893.792 296.408C892.874 295.627 892.396 294.572 892.357 293.244ZM914.564 322.541L923.587 301.301H932.494L917.171 333H909.261L903.841 301.301H912.22L914.564 322.541ZM945.589 333.586C942.816 333.566 940.355 332.893 938.206 331.564C936.078 330.217 934.486 328.381 933.431 326.057C932.376 323.713 931.966 321.135 932.201 318.322L932.288 317.15C932.581 314.064 933.48 311.232 934.984 308.654C936.488 306.076 938.421 304.094 940.785 302.707C943.148 301.301 945.765 300.637 948.636 300.715C952.718 300.793 955.804 302.297 957.894 305.227C960.003 308.137 960.804 311.828 960.296 316.301L959.828 319.904H940.404C940.326 321.955 940.824 323.596 941.898 324.826C942.972 326.057 944.437 326.691 946.292 326.73C949.3 326.809 951.937 325.646 954.203 323.244L957.982 327.932C956.79 329.729 955.072 331.135 952.826 332.15C950.579 333.146 948.167 333.625 945.589 333.586ZM948.226 307.541C946.703 307.502 945.345 307.98 944.154 308.977C942.982 309.973 941.927 311.701 940.99 314.162H952.357L952.533 313.4C952.65 312.619 952.66 311.877 952.562 311.174C952.367 310.041 951.888 309.162 951.126 308.537C950.365 307.893 949.398 307.561 948.226 307.541Z" fill="black"/>
<path d="M286.84 379.738H347.205L233.06 104.095H172.694L286.84 379.738Z" fill="black" stroke="white" stroke-width="4"/>
<g filter="url(#filter0_d)">
<path d="M118.365 379.738H58L172.146 104.095H232.511L118.365 379.738Z" fill="black"/>
<path d="M118.365 379.738H58L172.146 104.095H232.511L118.365 379.738Z" stroke="white" stroke-width="4"/>
</g>
<path d="M358.73 379.738H419.095L304.95 104.095H244.584L358.73 379.738Z" fill="black" stroke="white" stroke-width="4"/>
<defs>
<filter id="filter0_d" x="51.0071" y="102.095" width="188.497" height="287.643" filterUnits="userSpaceOnUse" color-interpolation-filters="sRGB">
<feFlood flood-opacity="0" result="BackgroundImageFix"/>
<feColorMatrix in="SourceAlpha" type="matrix" values="0 0 0 0 0 0 0 0 0 0 0 0 0 0 0 0 0 0 127 0"/>
<feOffset dy="4"/>
<feGaussianBlur stdDeviation="2"/>
<feColorMatrix type="matrix" values="0 0 0 0 0 0 0 0 0 0 0 0 0 0 0 0 0 0 0.25 0"/>
<feBlend mode="normal" in2="BackgroundImageFix" result="effect1_dropShadow"/>
<feBlend mode="normal" in="SourceGraphic" in2="effect1_dropShadow" result="shape"/>
</filter>
</defs>
</svg>
