<svg id="Layer_1" data-name="Layer 1" xmlns="http://www.w3.org/2000/svg" viewBox="0 0 1698.88 1367.61"><defs><style>.cls-1{font-size:271.33px;font-family:Lato-Semibold, Lato;font-weight:600;}.cls-1,.cls-4,.cls-5,.cls-9{fill:#1d1d1b;}.cls-2{letter-spacing:-0.06em;}.cls-3{font-size:250.72px;letter-spacing:0.04em;}.cls-13,.cls-3,.cls-6,.cls-7{fill:#e47544;}.cls-4{letter-spacing:-0.03em;}.cls-13,.cls-7,.cls-8{stroke:#e47544;stroke-miterlimit:10;}.cls-7,.cls-8{stroke-width:5px;}.cls-8{fill:none;}.cls-9{font-size:131.09px;font-family:Lato-Light, Lato;font-weight:300;letter-spacing:0.03em;}.cls-10{letter-spacing:0.01em;}.cls-11{letter-spacing:0.01em;}.cls-12{letter-spacing:0.04em;}</style></defs><text class="cls-1" transform="translate(0 631.48)">GP<tspan class="cls-2" x="363.17" y="0">T</tspan><tspan x="508.2" y="0" xml:space="preserve">-3  </tspan><tspan class="cls-3"><tspan x="0" y="223.02">MAKE</tspan><tspan class="cls-4" x="759.69" y="223.02">A</tspan><tspan class="cls-5" x="923.91" y="223.02">TH</tspan><tspan x="1285.19" y="223.02">O</tspan><tspan class="cls-5" x="1496.68" y="223.02">N</tspan></tspan></text><circle class="cls-6" cx="942.82" cy="312.83" r="46.08"/><circle class="cls-6" cx="1531.04" cy="995.38" r="46.08"/><line class="cls-7" x1="942.82" y1="312.83" x2="1210.97" y2="453.55"/><line class="cls-8" x1="1210.97" y1="453.55" x2="1013.82" y2="552.48"/><line class="cls-8" x1="1393.54" y1="767.7" x2="1210.97" y2="453.55"/><line class="cls-7" x1="1539.12" y1="1008.74" x2="1393.54" y2="767.7"/><text class="cls-9" transform="translate(473.23 1041.46)">b<tspan class="cls-10" x="75.84" y="0">y</tspan><tspan class="cls-11" x="143.48" y="0"> </tspan><tspan class="cls-12" x="180.25" y="0">TUM.ai</tspan></text><circle class="cls-6" cx="1207.57" cy="1066.36" r="46.08"/><line class="cls-8" x1="1207.57" y1="1066.36" x2="1375.68" y2="794.29"/><circle class="cls-13" cx="1013.82" cy="552.48" r="46.08"/><circle class="cls-6" cx="1393.54" cy="767.7" r="80.95"/><circle class="cls-6" cx="1210.97" cy="453.55" r="67.94"/><text x="-89.48" y="182.33"/><text x="-89.48" y="182.33"/><circle class="cls-13" cx="1400.97" cy="553.26" r="46.08"/><line class="cls-7" x1="1400.97" y1="553.26" x2="1380.62" y2="767.7"/><line class="cls-7" x1="1210.97" y1="453.55" x2="1400.97" y2="553.26"/></svg>